<mxfile host="Electron" modified="2023-10-12T09:08:45.221Z" agent="Mozilla/5.0 (Macintosh; Intel Mac OS X 10_15_7) AppleWebKit/537.36 (KHTML, like Gecko) draw.io/22.0.2 Chrome/114.0.5735.289 Electron/25.8.4 Safari/537.36" etag="DdyeQQueJJJQUDQ5CCjX" version="22.0.2" type="device">
  <diagram id="C5RBs43oDa-KdzZeNtuy" name="Page-1">
    <mxGraphModel dx="1856" dy="929" grid="1" gridSize="10" guides="1" tooltips="1" connect="1" arrows="1" fold="1" page="1" pageScale="1" pageWidth="1169" pageHeight="1654" background="none" math="0" shadow="0">
      <root>
        <mxCell id="WIyWlLk6GJQsqaUBKTNV-0" />
        <mxCell id="WIyWlLk6GJQsqaUBKTNV-1" parent="WIyWlLk6GJQsqaUBKTNV-0" />
        <mxCell id="05XnmWyHJhX3w0zN24I0-53" value="" style="rounded=1;whiteSpace=wrap;html=1;" parent="WIyWlLk6GJQsqaUBKTNV-1" vertex="1">
          <mxGeometry x="160" y="150" width="880" height="165" as="geometry" />
        </mxCell>
        <mxCell id="05XnmWyHJhX3w0zN24I0-25" value="" style="rounded=1;whiteSpace=wrap;html=1;arcSize=15;" parent="WIyWlLk6GJQsqaUBKTNV-1" vertex="1">
          <mxGeometry x="160" y="461" width="880" height="390" as="geometry" />
        </mxCell>
        <mxCell id="05XnmWyHJhX3w0zN24I0-23" value="" style="rounded=1;whiteSpace=wrap;html=1;" parent="WIyWlLk6GJQsqaUBKTNV-1" vertex="1">
          <mxGeometry x="160" y="330" width="880" height="120" as="geometry" />
        </mxCell>
        <mxCell id="xt-F6puH7QCuknrJk6XP-44" value="" style="edgeStyle=orthogonalEdgeStyle;rounded=0;orthogonalLoop=1;jettySize=auto;html=1;" edge="1" parent="WIyWlLk6GJQsqaUBKTNV-1" source="05XnmWyHJhX3w0zN24I0-0" target="xt-F6puH7QCuknrJk6XP-24">
          <mxGeometry relative="1" as="geometry">
            <Array as="points">
              <mxPoint x="270" y="690" />
              <mxPoint x="270" y="690" />
            </Array>
          </mxGeometry>
        </mxCell>
        <mxCell id="xt-F6puH7QCuknrJk6XP-45" style="edgeStyle=orthogonalEdgeStyle;rounded=0;orthogonalLoop=1;jettySize=auto;html=1;entryX=0;entryY=0.25;entryDx=0;entryDy=0;" edge="1" parent="WIyWlLk6GJQsqaUBKTNV-1" source="05XnmWyHJhX3w0zN24I0-0" target="xt-F6puH7QCuknrJk6XP-28">
          <mxGeometry relative="1" as="geometry" />
        </mxCell>
        <mxCell id="xt-F6puH7QCuknrJk6XP-48" value="" style="edgeStyle=orthogonalEdgeStyle;rounded=0;orthogonalLoop=1;jettySize=auto;html=1;" edge="1" parent="WIyWlLk6GJQsqaUBKTNV-1" source="05XnmWyHJhX3w0zN24I0-0" target="xt-F6puH7QCuknrJk6XP-22">
          <mxGeometry relative="1" as="geometry">
            <Array as="points">
              <mxPoint x="270" y="630" />
              <mxPoint x="270" y="630" />
            </Array>
          </mxGeometry>
        </mxCell>
        <mxCell id="05XnmWyHJhX3w0zN24I0-0" value="FeedViewController" style="rounded=0;whiteSpace=wrap;html=1;fillColor=#D5E8D4;fontColor=#000000;strokeColor=#2D7600;" parent="WIyWlLk6GJQsqaUBKTNV-1" vertex="1">
          <mxGeometry x="190" y="636" width="160" height="40" as="geometry" />
        </mxCell>
        <mxCell id="05XnmWyHJhX3w0zN24I0-1" value="UIKit" style="rounded=0;whiteSpace=wrap;html=1;strokeColor=#2D7600;fontColor=#ffffff;fillColor=#60a917;" parent="WIyWlLk6GJQsqaUBKTNV-1" vertex="1">
          <mxGeometry x="200" y="901.18" width="800" height="40" as="geometry" />
        </mxCell>
        <mxCell id="xt-F6puH7QCuknrJk6XP-12" style="edgeStyle=orthogonalEdgeStyle;rounded=0;orthogonalLoop=1;jettySize=auto;html=1;" edge="1" parent="WIyWlLk6GJQsqaUBKTNV-1" source="05XnmWyHJhX3w0zN24I0-4" target="05XnmWyHJhX3w0zN24I0-40">
          <mxGeometry relative="1" as="geometry" />
        </mxCell>
        <mxCell id="05XnmWyHJhX3w0zN24I0-4" value="&amp;lt;FeedLoader&amp;gt;" style="rounded=0;whiteSpace=wrap;html=1;fillColor=#f0a30a;fontColor=#000000;strokeColor=#BD7000;" parent="WIyWlLk6GJQsqaUBKTNV-1" vertex="1">
          <mxGeometry x="200" y="360" width="120" height="40" as="geometry" />
        </mxCell>
        <mxCell id="05XnmWyHJhX3w0zN24I0-52" style="edgeStyle=orthogonalEdgeStyle;rounded=0;orthogonalLoop=1;jettySize=auto;html=1;exitX=0;exitY=0.25;exitDx=0;exitDy=0;entryX=1;entryY=0.5;entryDx=0;entryDy=0;" parent="WIyWlLk6GJQsqaUBKTNV-1" source="05XnmWyHJhX3w0zN24I0-6" target="05XnmWyHJhX3w0zN24I0-45" edge="1">
          <mxGeometry relative="1" as="geometry">
            <Array as="points">
              <mxPoint x="355" y="270" />
            </Array>
          </mxGeometry>
        </mxCell>
        <mxCell id="xt-F6puH7QCuknrJk6XP-10" style="edgeStyle=orthogonalEdgeStyle;rounded=0;orthogonalLoop=1;jettySize=auto;html=1;entryX=0.5;entryY=0;entryDx=0;entryDy=0;" edge="1" parent="WIyWlLk6GJQsqaUBKTNV-1" source="05XnmWyHJhX3w0zN24I0-6" target="05XnmWyHJhX3w0zN24I0-40">
          <mxGeometry relative="1" as="geometry">
            <Array as="points">
              <mxPoint x="430" y="300" />
              <mxPoint x="430" y="300" />
            </Array>
          </mxGeometry>
        </mxCell>
        <mxCell id="xt-F6puH7QCuknrJk6XP-60" value="" style="edgeStyle=orthogonalEdgeStyle;rounded=0;orthogonalLoop=1;jettySize=auto;html=1;" edge="1" parent="WIyWlLk6GJQsqaUBKTNV-1" source="05XnmWyHJhX3w0zN24I0-6" target="xt-F6puH7QCuknrJk6XP-59">
          <mxGeometry relative="1" as="geometry" />
        </mxCell>
        <mxCell id="xt-F6puH7QCuknrJk6XP-69" value="" style="edgeStyle=orthogonalEdgeStyle;rounded=0;orthogonalLoop=1;jettySize=auto;html=1;" edge="1" parent="WIyWlLk6GJQsqaUBKTNV-1" source="05XnmWyHJhX3w0zN24I0-6" target="xt-F6puH7QCuknrJk6XP-68">
          <mxGeometry relative="1" as="geometry" />
        </mxCell>
        <mxCell id="05XnmWyHJhX3w0zN24I0-6" value="RemoteFeedLoader" style="rounded=0;whiteSpace=wrap;html=1;fontColor=#ffffff;labelBorderColor=none;strokeColor=#006EAF;fillColor=#1ba1e2;" parent="WIyWlLk6GJQsqaUBKTNV-1" vertex="1">
          <mxGeometry x="355" y="250" width="130" height="40" as="geometry" />
        </mxCell>
        <mxCell id="05XnmWyHJhX3w0zN24I0-12" value="&amp;nbsp;Rijskmuseum&lt;br&gt;API" style="ellipse;shape=cloud;whiteSpace=wrap;html=1;" parent="WIyWlLk6GJQsqaUBKTNV-1" vertex="1">
          <mxGeometry x="525" y="30" width="120" height="80" as="geometry" />
        </mxCell>
        <mxCell id="05XnmWyHJhX3w0zN24I0-40" value="FeedItem" style="rounded=1;whiteSpace=wrap;html=1;fillColor=#fad7ac;strokeColor=#b46504;fontColor=#000000;" parent="WIyWlLk6GJQsqaUBKTNV-1" vertex="1">
          <mxGeometry x="390" y="365" width="80" height="30" as="geometry" />
        </mxCell>
        <mxCell id="xt-F6puH7QCuknrJk6XP-65" style="edgeStyle=orthogonalEdgeStyle;rounded=0;orthogonalLoop=1;jettySize=auto;html=1;entryX=0.75;entryY=0;entryDx=0;entryDy=0;" edge="1" parent="WIyWlLk6GJQsqaUBKTNV-1" source="05XnmWyHJhX3w0zN24I0-45" target="05XnmWyHJhX3w0zN24I0-40">
          <mxGeometry relative="1" as="geometry">
            <Array as="points">
              <mxPoint x="585" y="300" />
              <mxPoint x="450" y="300" />
            </Array>
          </mxGeometry>
        </mxCell>
        <mxCell id="05XnmWyHJhX3w0zN24I0-45" value="RemoteFeedItem" style="rounded=1;whiteSpace=wrap;html=1;fillColor=#1ba1e2;fontColor=#ffffff;strokeColor=#006EAF;" parent="WIyWlLk6GJQsqaUBKTNV-1" vertex="1">
          <mxGeometry x="525" y="255" width="120" height="30" as="geometry" />
        </mxCell>
        <mxCell id="xt-F6puH7QCuknrJk6XP-7" value="" style="edgeStyle=orthogonalEdgeStyle;rounded=0;orthogonalLoop=1;jettySize=auto;html=1;" edge="1" parent="WIyWlLk6GJQsqaUBKTNV-1" source="xt-F6puH7QCuknrJk6XP-3" target="xt-F6puH7QCuknrJk6XP-6">
          <mxGeometry relative="1" as="geometry" />
        </mxCell>
        <mxCell id="xt-F6puH7QCuknrJk6XP-21" value="" style="edgeStyle=orthogonalEdgeStyle;rounded=0;orthogonalLoop=1;jettySize=auto;html=1;" edge="1" parent="WIyWlLk6GJQsqaUBKTNV-1" source="xt-F6puH7QCuknrJk6XP-3" target="xt-F6puH7QCuknrJk6XP-4">
          <mxGeometry relative="1" as="geometry" />
        </mxCell>
        <mxCell id="xt-F6puH7QCuknrJk6XP-3" value="FeedItemDetailsViewController" style="rounded=0;whiteSpace=wrap;html=1;fillColor=#D5E8D4;fontColor=#000000;strokeColor=#2D7600;" vertex="1" parent="WIyWlLk6GJQsqaUBKTNV-1">
          <mxGeometry x="581" y="560" width="180" height="40" as="geometry" />
        </mxCell>
        <mxCell id="xt-F6puH7QCuknrJk6XP-15" style="edgeStyle=orthogonalEdgeStyle;rounded=0;orthogonalLoop=1;jettySize=auto;html=1;entryX=0.5;entryY=1;entryDx=0;entryDy=0;" edge="1" parent="WIyWlLk6GJQsqaUBKTNV-1" source="xt-F6puH7QCuknrJk6XP-4" target="xt-F6puH7QCuknrJk6XP-14">
          <mxGeometry relative="1" as="geometry" />
        </mxCell>
        <mxCell id="xt-F6puH7QCuknrJk6XP-18" style="edgeStyle=orthogonalEdgeStyle;rounded=0;orthogonalLoop=1;jettySize=auto;html=1;" edge="1" parent="WIyWlLk6GJQsqaUBKTNV-1" source="xt-F6puH7QCuknrJk6XP-4" target="xt-F6puH7QCuknrJk6XP-17">
          <mxGeometry relative="1" as="geometry">
            <Array as="points">
              <mxPoint x="900" y="510" />
            </Array>
          </mxGeometry>
        </mxCell>
        <mxCell id="xt-F6puH7QCuknrJk6XP-19" style="edgeStyle=orthogonalEdgeStyle;rounded=0;orthogonalLoop=1;jettySize=auto;html=1;entryX=0.5;entryY=1;entryDx=0;entryDy=0;" edge="1" parent="WIyWlLk6GJQsqaUBKTNV-1" source="xt-F6puH7QCuknrJk6XP-4" target="xt-F6puH7QCuknrJk6XP-8">
          <mxGeometry relative="1" as="geometry" />
        </mxCell>
        <mxCell id="xt-F6puH7QCuknrJk6XP-47" style="edgeStyle=orthogonalEdgeStyle;rounded=0;orthogonalLoop=1;jettySize=auto;html=1;" edge="1" parent="WIyWlLk6GJQsqaUBKTNV-1" source="xt-F6puH7QCuknrJk6XP-4" target="05XnmWyHJhX3w0zN24I0-40">
          <mxGeometry relative="1" as="geometry">
            <Array as="points">
              <mxPoint x="450" y="510" />
            </Array>
          </mxGeometry>
        </mxCell>
        <mxCell id="xt-F6puH7QCuknrJk6XP-4" value="FeedItemDetailsViewModel" style="rounded=0;whiteSpace=wrap;html=1;fillColor=#1ba1e2;fontColor=#ffffff;strokeColor=#006EAF;" vertex="1" parent="WIyWlLk6GJQsqaUBKTNV-1">
          <mxGeometry x="583" y="490" width="175" height="40" as="geometry" />
        </mxCell>
        <mxCell id="xt-F6puH7QCuknrJk6XP-6" value="FeedItemDetailsView" style="rounded=0;whiteSpace=wrap;html=1;fillColor=#D5E8D4;fontColor=#000000;strokeColor=#2D7600;" vertex="1" parent="WIyWlLk6GJQsqaUBKTNV-1">
          <mxGeometry x="788" y="560" width="130" height="40" as="geometry" />
        </mxCell>
        <mxCell id="xt-F6puH7QCuknrJk6XP-11" style="edgeStyle=orthogonalEdgeStyle;rounded=0;orthogonalLoop=1;jettySize=auto;html=1;entryX=1;entryY=0.5;entryDx=0;entryDy=0;" edge="1" parent="WIyWlLk6GJQsqaUBKTNV-1" source="xt-F6puH7QCuknrJk6XP-8" target="05XnmWyHJhX3w0zN24I0-40">
          <mxGeometry relative="1" as="geometry" />
        </mxCell>
        <mxCell id="xt-F6puH7QCuknrJk6XP-8" value="&amp;lt;FeedItemLoader&amp;gt;" style="rounded=0;whiteSpace=wrap;html=1;fillColor=#f0a30a;fontColor=#000000;strokeColor=#BD7000;" vertex="1" parent="WIyWlLk6GJQsqaUBKTNV-1">
          <mxGeometry x="610" y="360" width="120" height="40" as="geometry" />
        </mxCell>
        <mxCell id="xt-F6puH7QCuknrJk6XP-16" style="edgeStyle=orthogonalEdgeStyle;rounded=0;orthogonalLoop=1;jettySize=auto;html=1;fillColor=#d80073;strokeColor=#A50040;strokeWidth=3;" edge="1" parent="WIyWlLk6GJQsqaUBKTNV-1">
          <mxGeometry relative="1" as="geometry">
            <mxPoint x="840.0055865921788" y="395" as="sourcePoint" />
            <mxPoint x="970" y="900" as="targetPoint" />
            <Array as="points">
              <mxPoint x="840" y="430" />
              <mxPoint x="970" y="430" />
              <mxPoint x="970" y="900" />
            </Array>
          </mxGeometry>
        </mxCell>
        <mxCell id="xt-F6puH7QCuknrJk6XP-20" value="Ideally UIImage shouldn&#39;t be referred from the business logic layer" style="edgeLabel;html=1;align=center;verticalAlign=middle;resizable=0;points=[];" vertex="1" connectable="0" parent="xt-F6puH7QCuknrJk6XP-16">
          <mxGeometry x="0.0151" y="1" relative="1" as="geometry">
            <mxPoint x="-1" y="283" as="offset" />
          </mxGeometry>
        </mxCell>
        <mxCell id="xt-F6puH7QCuknrJk6XP-14" value="&amp;lt;ImageLoader&amp;gt;" style="rounded=0;whiteSpace=wrap;html=1;fillColor=#f0a30a;fontColor=#000000;strokeColor=#BD7000;" vertex="1" parent="WIyWlLk6GJQsqaUBKTNV-1">
          <mxGeometry x="760" y="360" width="100" height="40" as="geometry" />
        </mxCell>
        <mxCell id="xt-F6puH7QCuknrJk6XP-17" value="&amp;lt;ImageLoaderTask&amp;gt;" style="rounded=0;whiteSpace=wrap;html=1;fillColor=#f0a30a;fontColor=#000000;strokeColor=#BD7000;" vertex="1" parent="WIyWlLk6GJQsqaUBKTNV-1">
          <mxGeometry x="870" y="360" width="120" height="40" as="geometry" />
        </mxCell>
        <mxCell id="xt-F6puH7QCuknrJk6XP-51" value="" style="edgeStyle=orthogonalEdgeStyle;rounded=0;orthogonalLoop=1;jettySize=auto;html=1;" edge="1" parent="WIyWlLk6GJQsqaUBKTNV-1" source="xt-F6puH7QCuknrJk6XP-22" target="xt-F6puH7QCuknrJk6XP-49">
          <mxGeometry relative="1" as="geometry">
            <Array as="points">
              <mxPoint x="268" y="560" />
              <mxPoint x="268" y="560" />
            </Array>
          </mxGeometry>
        </mxCell>
        <mxCell id="xt-F6puH7QCuknrJk6XP-22" value="FeedRefreshViewController" style="rounded=0;whiteSpace=wrap;html=1;fillColor=#D5E8D4;fontColor=#000000;strokeColor=#2D7600;" vertex="1" parent="WIyWlLk6GJQsqaUBKTNV-1">
          <mxGeometry x="190" y="570" width="160" height="40" as="geometry" />
        </mxCell>
        <mxCell id="xt-F6puH7QCuknrJk6XP-24" value="FeedDataSource" style="rounded=0;whiteSpace=wrap;html=1;fillColor=#D5E8D4;fontColor=#000000;strokeColor=#2D7600;" vertex="1" parent="WIyWlLk6GJQsqaUBKTNV-1">
          <mxGeometry x="190" y="700" width="160" height="40" as="geometry" />
        </mxCell>
        <mxCell id="xt-F6puH7QCuknrJk6XP-25" style="edgeStyle=orthogonalEdgeStyle;rounded=0;orthogonalLoop=1;jettySize=auto;html=1;entryX=0.263;entryY=0.041;entryDx=0;entryDy=0;entryPerimeter=0;" edge="1" parent="WIyWlLk6GJQsqaUBKTNV-1" source="xt-F6puH7QCuknrJk6XP-24" target="05XnmWyHJhX3w0zN24I0-1">
          <mxGeometry relative="1" as="geometry">
            <Array as="points">
              <mxPoint x="270" y="821" />
              <mxPoint x="410" y="821" />
              <mxPoint x="410" y="903" />
            </Array>
          </mxGeometry>
        </mxCell>
        <mxCell id="xt-F6puH7QCuknrJk6XP-26" value="UICollectionViewDiffableDataSource" style="edgeLabel;html=1;align=center;verticalAlign=middle;resizable=0;points=[];" vertex="1" connectable="0" parent="xt-F6puH7QCuknrJk6XP-25">
          <mxGeometry x="0.222" y="-1" relative="1" as="geometry">
            <mxPoint x="-65" y="-12" as="offset" />
          </mxGeometry>
        </mxCell>
        <mxCell id="xt-F6puH7QCuknrJk6XP-55" style="edgeStyle=orthogonalEdgeStyle;rounded=0;orthogonalLoop=1;jettySize=auto;html=1;" edge="1" parent="WIyWlLk6GJQsqaUBKTNV-1" source="xt-F6puH7QCuknrJk6XP-27">
          <mxGeometry relative="1" as="geometry">
            <mxPoint x="620" y="901" as="targetPoint" />
            <Array as="points">
              <mxPoint x="620" y="901" />
            </Array>
          </mxGeometry>
        </mxCell>
        <mxCell id="xt-F6puH7QCuknrJk6XP-27" value="FeedItemCell" style="rounded=0;whiteSpace=wrap;html=1;fillColor=#D5E8D4;fontColor=#000000;strokeColor=#2D7600;" vertex="1" parent="WIyWlLk6GJQsqaUBKTNV-1">
          <mxGeometry x="570" y="680" width="100" height="40" as="geometry" />
        </mxCell>
        <mxCell id="xt-F6puH7QCuknrJk6XP-34" value="" style="edgeStyle=orthogonalEdgeStyle;rounded=0;orthogonalLoop=1;jettySize=auto;html=1;" edge="1" parent="WIyWlLk6GJQsqaUBKTNV-1" source="xt-F6puH7QCuknrJk6XP-28" target="xt-F6puH7QCuknrJk6XP-27">
          <mxGeometry relative="1" as="geometry" />
        </mxCell>
        <mxCell id="xt-F6puH7QCuknrJk6XP-35" value="" style="edgeStyle=orthogonalEdgeStyle;rounded=0;orthogonalLoop=1;jettySize=auto;html=1;" edge="1" parent="WIyWlLk6GJQsqaUBKTNV-1" source="xt-F6puH7QCuknrJk6XP-28" target="xt-F6puH7QCuknrJk6XP-32">
          <mxGeometry relative="1" as="geometry" />
        </mxCell>
        <mxCell id="xt-F6puH7QCuknrJk6XP-54" style="edgeStyle=orthogonalEdgeStyle;rounded=0;orthogonalLoop=1;jettySize=auto;html=1;" edge="1" parent="WIyWlLk6GJQsqaUBKTNV-1" source="xt-F6puH7QCuknrJk6XP-28" target="05XnmWyHJhX3w0zN24I0-1">
          <mxGeometry relative="1" as="geometry">
            <Array as="points">
              <mxPoint x="471" y="860" />
              <mxPoint x="471" y="860" />
            </Array>
          </mxGeometry>
        </mxCell>
        <mxCell id="xt-F6puH7QCuknrJk6XP-28" value="FeedCellController" style="rounded=0;whiteSpace=wrap;html=1;fillColor=#D5E8D4;fontColor=#000000;strokeColor=#2D7600;" vertex="1" parent="WIyWlLk6GJQsqaUBKTNV-1">
          <mxGeometry x="401.25" y="680" width="140" height="40" as="geometry" />
        </mxCell>
        <mxCell id="xt-F6puH7QCuknrJk6XP-39" style="edgeStyle=orthogonalEdgeStyle;rounded=0;orthogonalLoop=1;jettySize=auto;html=1;" edge="1" parent="WIyWlLk6GJQsqaUBKTNV-1" source="xt-F6puH7QCuknrJk6XP-32">
          <mxGeometry relative="1" as="geometry">
            <mxPoint x="950" y="400" as="targetPoint" />
            <Array as="points">
              <mxPoint x="950" y="630" />
              <mxPoint x="950" y="400" />
            </Array>
          </mxGeometry>
        </mxCell>
        <mxCell id="xt-F6puH7QCuknrJk6XP-32" value="FeedItemViewModel" style="rounded=0;whiteSpace=wrap;html=1;fillColor=#D5E8D4;fontColor=#000000;strokeColor=#2D7600;" vertex="1" parent="WIyWlLk6GJQsqaUBKTNV-1">
          <mxGeometry x="400" y="610" width="140" height="40" as="geometry" />
        </mxCell>
        <mxCell id="xt-F6puH7QCuknrJk6XP-36" style="edgeStyle=orthogonalEdgeStyle;rounded=0;orthogonalLoop=1;jettySize=auto;html=1;entryX=0.5;entryY=1;entryDx=0;entryDy=0;" edge="1" parent="WIyWlLk6GJQsqaUBKTNV-1" source="xt-F6puH7QCuknrJk6XP-32" target="05XnmWyHJhX3w0zN24I0-40">
          <mxGeometry relative="1" as="geometry">
            <Array as="points">
              <mxPoint x="430" y="540" />
              <mxPoint x="430" y="540" />
            </Array>
          </mxGeometry>
        </mxCell>
        <mxCell id="xt-F6puH7QCuknrJk6XP-37" style="edgeStyle=orthogonalEdgeStyle;rounded=0;orthogonalLoop=1;jettySize=auto;html=1;exitX=0.75;exitY=0;exitDx=0;exitDy=0;entryX=0.333;entryY=0.975;entryDx=0;entryDy=0;entryPerimeter=0;" edge="1" parent="WIyWlLk6GJQsqaUBKTNV-1" source="xt-F6puH7QCuknrJk6XP-32" target="xt-F6puH7QCuknrJk6XP-14">
          <mxGeometry relative="1" as="geometry">
            <Array as="points">
              <mxPoint x="505" y="480" />
              <mxPoint x="800" y="480" />
            </Array>
          </mxGeometry>
        </mxCell>
        <mxCell id="xt-F6puH7QCuknrJk6XP-46" style="edgeStyle=orthogonalEdgeStyle;rounded=0;orthogonalLoop=1;jettySize=auto;html=1;entryX=0.005;entryY=0.675;entryDx=0;entryDy=0;entryPerimeter=0;" edge="1" parent="WIyWlLk6GJQsqaUBKTNV-1" source="xt-F6puH7QCuknrJk6XP-24" target="xt-F6puH7QCuknrJk6XP-28">
          <mxGeometry relative="1" as="geometry" />
        </mxCell>
        <mxCell id="xt-F6puH7QCuknrJk6XP-50" value="" style="edgeStyle=orthogonalEdgeStyle;rounded=0;orthogonalLoop=1;jettySize=auto;html=1;" edge="1" parent="WIyWlLk6GJQsqaUBKTNV-1" source="xt-F6puH7QCuknrJk6XP-49" target="05XnmWyHJhX3w0zN24I0-4">
          <mxGeometry relative="1" as="geometry">
            <Array as="points">
              <mxPoint x="270" y="430" />
              <mxPoint x="270" y="430" />
            </Array>
          </mxGeometry>
        </mxCell>
        <mxCell id="xt-F6puH7QCuknrJk6XP-49" value="FeedViewModel" style="rounded=0;whiteSpace=wrap;html=1;fillColor=#1ba1e2;fontColor=#ffffff;strokeColor=#006EAF;" vertex="1" parent="WIyWlLk6GJQsqaUBKTNV-1">
          <mxGeometry x="190" y="500" width="160" height="40" as="geometry" />
        </mxCell>
        <mxCell id="xt-F6puH7QCuknrJk6XP-53" style="edgeStyle=orthogonalEdgeStyle;rounded=0;orthogonalLoop=1;jettySize=auto;html=1;" edge="1" parent="WIyWlLk6GJQsqaUBKTNV-1" source="xt-F6puH7QCuknrJk6XP-49">
          <mxGeometry relative="1" as="geometry">
            <mxPoint x="410" y="393" as="targetPoint" />
            <Array as="points">
              <mxPoint x="410" y="520" />
              <mxPoint x="410" y="393" />
            </Array>
          </mxGeometry>
        </mxCell>
        <mxCell id="xt-F6puH7QCuknrJk6XP-57" style="edgeStyle=orthogonalEdgeStyle;rounded=0;orthogonalLoop=1;jettySize=auto;html=1;entryX=0.633;entryY=0.006;entryDx=0;entryDy=0;entryPerimeter=0;" edge="1" parent="WIyWlLk6GJQsqaUBKTNV-1">
          <mxGeometry relative="1" as="geometry">
            <mxPoint x="850" y="600" as="sourcePoint" />
            <mxPoint x="540.01" y="901.1800000000001" as="targetPoint" />
            <Array as="points">
              <mxPoint x="850" y="600" />
              <mxPoint x="850" y="830" />
              <mxPoint x="541" y="830" />
              <mxPoint x="541" y="901" />
            </Array>
          </mxGeometry>
        </mxCell>
        <mxCell id="xt-F6puH7QCuknrJk6XP-58" style="edgeStyle=orthogonalEdgeStyle;rounded=0;orthogonalLoop=1;jettySize=auto;html=1;entryX=0.617;entryY=-0.007;entryDx=0;entryDy=0;entryPerimeter=0;" edge="1" parent="WIyWlLk6GJQsqaUBKTNV-1" source="xt-F6puH7QCuknrJk6XP-3" target="05XnmWyHJhX3w0zN24I0-1">
          <mxGeometry relative="1" as="geometry">
            <Array as="points">
              <mxPoint x="694" y="751" />
            </Array>
          </mxGeometry>
        </mxCell>
        <mxCell id="xt-F6puH7QCuknrJk6XP-59" value="&amp;lt;HTTPClient&amp;gt;" style="rounded=0;whiteSpace=wrap;html=1;fillColor=#f0a30a;fontColor=#000000;strokeColor=#BD7000;" vertex="1" parent="WIyWlLk6GJQsqaUBKTNV-1">
          <mxGeometry x="360" y="180" width="120" height="40" as="geometry" />
        </mxCell>
        <mxCell id="xt-F6puH7QCuknrJk6XP-63" value="" style="edgeStyle=orthogonalEdgeStyle;rounded=0;orthogonalLoop=1;jettySize=auto;html=1;" edge="1" parent="WIyWlLk6GJQsqaUBKTNV-1" source="xt-F6puH7QCuknrJk6XP-61" target="xt-F6puH7QCuknrJk6XP-59">
          <mxGeometry relative="1" as="geometry" />
        </mxCell>
        <mxCell id="xt-F6puH7QCuknrJk6XP-64" value="" style="edgeStyle=orthogonalEdgeStyle;rounded=0;orthogonalLoop=1;jettySize=auto;html=1;" edge="1" parent="WIyWlLk6GJQsqaUBKTNV-1" source="xt-F6puH7QCuknrJk6XP-61" target="05XnmWyHJhX3w0zN24I0-12">
          <mxGeometry relative="1" as="geometry" />
        </mxCell>
        <mxCell id="xt-F6puH7QCuknrJk6XP-61" value="URLSessionHTTPClient" style="rounded=0;whiteSpace=wrap;html=1;fontColor=#ffffff;labelBorderColor=none;strokeColor=#006EAF;fillColor=#1ba1e2;" vertex="1" parent="WIyWlLk6GJQsqaUBKTNV-1">
          <mxGeometry x="510" y="180" width="150" height="40" as="geometry" />
        </mxCell>
        <mxCell id="xt-F6puH7QCuknrJk6XP-66" style="edgeStyle=orthogonalEdgeStyle;rounded=0;orthogonalLoop=1;jettySize=auto;html=1;entryX=0.125;entryY=0.25;entryDx=0;entryDy=0;entryPerimeter=0;" edge="1" parent="WIyWlLk6GJQsqaUBKTNV-1" source="05XnmWyHJhX3w0zN24I0-6" target="05XnmWyHJhX3w0zN24I0-23">
          <mxGeometry relative="1" as="geometry">
            <Array as="points">
              <mxPoint x="420" y="300" />
              <mxPoint x="270" y="300" />
            </Array>
          </mxGeometry>
        </mxCell>
        <mxCell id="xt-F6puH7QCuknrJk6XP-68" value="APISettings" style="rounded=0;whiteSpace=wrap;html=1;fontColor=#ffffff;labelBorderColor=none;strokeColor=#006EAF;fillColor=#1ba1e2;" vertex="1" parent="WIyWlLk6GJQsqaUBKTNV-1">
          <mxGeometry x="204" y="250" width="110" height="40" as="geometry" />
        </mxCell>
      </root>
    </mxGraphModel>
  </diagram>
</mxfile>
